<?xml version="1.0" encoding="utf-8"?>
<!-- Generator: Adobe Illustrator 21.0.0, SVG Export Plug-In . SVG Version: 6.00 Build 0)  -->
<svg version="1.1" id="Layer_1" xmlns="http://www.w3.org/2000/svg" xmlns:xlink="http://www.w3.org/1999/xlink" x="0px" y="0px"
	 viewBox="0 0 100 100" style="enable-background:new 0 0 100 100;" xml:space="preserve">
<style type="text/css">
	.st0{fill:#131313;}
</style>
<g id="NvQqVp.tif">
	<g>
		<path class="st0" d="M96.6,46.7c-0.7-9.2-3.8-17.4-9.3-24.8C81.5,14.1,73.9,8.7,64.7,5.6c-3.5-1.2-7-1.9-10.7-2.2
			c-0.6,0-1.3-0.1-1.9-0.2c-1.4,0-2.8,0-4.2,0c-0.6,0.1-1.3,0.1-1.9,0.2C38.9,4,32.2,6.1,26.1,9.8C16.3,15.8,9.5,24.2,5.7,35.1
			c-1.2,3.5-2,7.2-2.3,11c-0.1,0.7-0.1,1.3-0.2,2c0,1.3,0,2.7,0,4c0.1,1,0.2,2,0.3,3C4,59.4,5,63.6,6.7,67.7
			c3.1,7.4,7.7,13.7,14,18.7c5.6,4.5,11.8,7.5,18.8,9.1c4.2,1,8.6,1.4,12.9,1.1c9.9-0.5,18.7-3.8,26.5-9.9
			c8.4-6.6,13.9-15.2,16.5-25.6C96.6,56.4,97,51.5,96.6,46.7z M47.3,7.5c0.2-0.1,0.5-0.2,0.8-0.2c0,6.8,0,13.5,0,20.2
			c-1.9,0.3-11.9-1.1-13.5-1.8c1.6-4.9,3.6-9.6,6.9-13.6C43.1,10.1,44.9,8.4,47.3,7.5z M48.1,31.2c0,5.6,0,11.2,0,16.9
			c-5.6,0-11.2,0-16.9,0c0.1-6.3,0.8-12.6,2.4-18.8C38.4,30.5,43.2,31.1,48.1,31.2z M39.7,8.3c-2.1,2.3-3.8,4.9-5.2,7.7
			c-1.4,2.8-2.5,5.7-3.5,8.7c-4-1.2-7.9-2.8-11.6-4.8C25.1,14.1,31.8,10.3,39.7,8.3z M16.8,22.7C21,25,25.4,26.9,30,28.3
			c-0.8,3.3-1.5,6.5-1.8,9.8c-0.3,3.3-0.6,6.6-0.9,10c-6.7,0-13.4,0-20.3,0C7.5,38.6,10.8,30.2,16.8,22.7z M7,51.9
			c6.8,0,13.6,0,20.4,0c0.1,6.7,0.9,13.3,2.6,19.8c-4.6,1.4-9,3.3-13.2,5.6C10.8,69.9,7.5,61.4,7,51.9z M19.4,80.2
			c1.3-1,8.6-4.1,11.6-4.9c1.9,6,4.4,11.6,8.7,16.4C31.8,89.8,25.1,85.9,19.4,80.2z M48.1,92.8c-0.6-0.2-1.1-0.4-1.6-0.6
			c-2-1-3.6-2.4-4.9-4.1c-2.8-3.4-4.6-7.3-6.2-11.4c-0.3-0.8-0.5-1.5-0.8-2.4c4.5-1.1,8.9-1.7,13.5-1.8C48.1,79.3,48.1,86,48.1,92.8
			z M47.7,68.8c-4.7,0.1-9.4,0.8-14.1,1.9c-1.6-6.2-2.3-12.4-2.4-18.8c5.7,0,11.3,0,16.9,0c0,0.2,0,0.3,0,0.5c0,5.3,0,10.6,0,15.9
			C48.1,68.6,48.1,68.8,47.7,68.8z M71.2,12.6c3.5,2,6.6,4.4,9.5,7.3c-3.8,2-7.6,3.6-11.7,4.9c-2-6-4.5-11.7-8.8-16.4
			C61.7,8.3,67.8,10.7,71.2,12.6z M51.9,7.3c0.4,0.2,0.8,0.3,1.1,0.4c2.1,0.9,3.7,2.4,5.1,4.1c2.9,3.4,4.8,7.4,6.3,11.6
			c0.3,0.7,0.5,1.5,0.8,2.3c-4.4,1.1-8.8,1.6-13.4,1.8C51.9,20.8,51.9,14.1,51.9,7.3z M51.9,31.2c4.9-0.1,9.6-0.8,14.4-1.9
			c1.6,6.2,2.3,12.4,2.4,18.8c-5.6,0-11.2,0-16.8,0C51.9,42.5,51.9,36.9,51.9,31.2z M51.9,52.2c0-0.1,0-0.2,0-0.3
			c5.6,0,11.2,0,16.8,0c-0.1,6.3-0.8,12.6-2.4,18.7c-1.2-0.3-2.4-0.6-3.6-0.7c-2.7-0.4-5.5-0.7-8.3-1c-0.7-0.1-1.4-0.1-2.1-0.1
			c-0.3,0-0.4-0.1-0.4-0.4C51.9,63,51.9,57.6,51.9,52.2z M52.5,92.5c-0.2,0.1-0.4,0.1-0.6,0.2c0-6.8,0-13.5,0-20.1
			c1.8-0.3,10.6,0.9,13.4,1.8c-0.7,1.8-1.4,3.7-2.2,5.5c-1.3,3-2.9,5.9-5,8.4C56.6,90.1,54.8,91.6,52.5,92.5z M60,91.8
			c4.4-4.8,6.9-10.5,8.9-16.5c1.7,0.2,9,3.2,11.7,4.8C74.9,85.9,68.1,89.8,60,91.8z M83.2,77.3c-4.3-2.3-8.7-4.2-13.3-5.6
			c0.3-1.2,0.6-2.4,0.8-3.7c0.5-3,1-6,1.3-9c0.3-2.2,0.3-4.4,0.4-6.7c0-0.3,0.1-0.4,0.4-0.4c6.6,0,13.2,0,19.8,0c0.1,0,0.2,0,0.3,0
			C92.5,61.4,89.2,69.8,83.2,77.3z M72.4,48.1c-0.1-6.7-0.9-13.2-2.5-19.8c4.6-1.4,9.1-3.3,13.3-5.6c6,7.4,9.2,15.8,9.7,25.4
			C86.1,48.1,79.3,48.1,72.4,48.1z"/>
	</g>
</g>
</svg>
