<?xml version="1.0" encoding="utf-8"?>
<!-- Generator: Adobe Illustrator 21.0.0, SVG Export Plug-In . SVG Version: 6.00 Build 0)  -->
<svg version="1.1" id="Layer_1" xmlns="http://www.w3.org/2000/svg" xmlns:xlink="http://www.w3.org/1999/xlink" x="0px" y="0px"
	 viewBox="0 0 100 100" style="enable-background:new 0 0 100 100;" xml:space="preserve">
<style type="text/css">
	.st0{fill:#1F232D;}
</style>
<g>
	<path class="st0" d="M46.9,70.7c-0.5,0.3-1,0.7-1.3,1.1c-1.9,1.9-3.9,3.9-5.8,5.8c-3.1,3.1-6.3,6.3-9.4,9.4
		c-3.1,3.1-6.6,4.3-10.4,3.7c-5.1-0.8-8.5-3.8-10.2-8.7c-1.5-4.5-0.4-8.6,3.3-12.4c2-2.1,4.1-4.1,6.2-6.2l7.5-7.5
		c3.8-3.8,7.5-7.5,11.3-11.3c3.2-3.2,7-4.4,11.1-3.5c3.6,0.8,6.5,2.9,8.4,6.3c0.3,0.6,1.1,1.9,2.6,2.1c1.3,0.2,2.5-0.3,3.2-1.4
		c0.5-0.8,1-2.1,0.1-3.7c-3.5-6.3-9-9.7-16.3-10l0,0l0,0c-5.7,0.1-10.3,2-14,5.6c-5,5.1-10.1,10.1-15.2,15.2l-9.5,9.5
		C3,70.3,1.4,78.5,4.4,85.8c2.3,5.6,7.4,9.7,13.5,10.9c1.3,0.3,2.6,0.4,3.9,0.4c4.8,0,9.5-1.8,12.9-5.2c3.7-3.7,7.5-7.4,11.1-11.1
		c1.5-1.6,3.1-3.1,4.7-4.7c0.2-0.2,0.5-0.5,0.7-0.8c0.8-1.3,0.6-3-0.4-4C49.7,70.2,48.1,70,46.9,70.7z"/>
	<path class="st0" d="M96.2,16c-1.8-6.1-6.7-10.8-13-12.5c-6.6-1.7-13.3,0-18.1,4.7c-2.6,2.5-5.2,5.1-7.7,7.6
		c-1.2,1.2-2.3,2.3-3.5,3.5l-1.4,1.4c-1.1,1.1-2.2,2.2-3.3,3.3c-0.7,0.7-1.1,1.6-1.1,2.5c0,0.8,0.4,1.7,1,2.3
		c1.3,1.3,3.3,1.2,4.7-0.1c0.2-0.2,0.4-0.3,0.5-0.5l0.2-0.2c1.5-1.5,3.1-3.1,4.6-4.6c3.5-3.5,7-7.1,10.6-10.6C74.8,8,82,8.1,87,13
		c5,5,5.1,12.2,0.2,17.2C79,38.4,70.6,46.7,62.5,54.8l-0.9,0.9c-2.1,2.1-4.6,3.3-7.3,3.5c-5.1,0.3-9-1.8-11.9-6.5
		c-0.5-0.8-1.3-1.5-2.1-1.9c-1.3-0.6-2.7-0.2-3.6,1c-0.6,0.8-1.2,2.1-0.2,3.8c3.5,6.3,9,9.6,16.3,9.9l0,0h0c5.7-0.1,10.3-2,14-5.6
		c3.4-3.4,6.7-6.7,10.1-10.1c4.9-4.9,9.7-9.7,14.6-14.6C96.7,30,98.3,23.3,96.2,16z"/>
</g>
</svg>
